<svg width="35" height="34" viewBox="0 0 35 34" fill="none" xmlns="http://www.w3.org/2000/svg">
<mask id="path-1-inside-1_211_2338" fill="white">
<path d="M20.3151 16.6106C20.1475 16.6106 19.9919 16.5645 19.8537 16.4904V16.4923C19.8537 16.756 19.7512 17.0037 19.5652 17.1892C19.3792 17.3751 19.1318 17.4776 18.8684 17.4776C18.6983 17.4776 18.5407 17.4304 18.401 17.3543C18.3869 17.5955 18.2905 17.821 18.1184 17.9932C17.9325 18.1792 17.685 18.2817 17.4215 18.2817C16.8978 18.2817 16.4726 17.8701 16.4419 17.3541C16.2799 17.4417 16.0967 17.4876 15.9078 17.4755C15.3927 17.4417 14.9893 16.9966 14.9893 16.462V12.0304L14.4846 12.9046C14.2924 13.239 13.9327 13.4466 13.5453 13.4466C13.3565 13.4466 13.1701 13.3971 13.0049 13.3024C12.7993 13.1832 12.6522 12.9918 12.591 12.7629C12.5295 12.5338 12.5613 12.2942 12.6802 12.0889C12.6804 12.0889 14.3313 9.22997 14.432 9.05436C14.444 9.02796 14.4781 8.95137 14.5071 8.8861C14.5348 8.82379 14.5586 8.75983 14.5814 8.69554C15.0793 7.28998 16.312 6.41688 17.7988 6.41688C19.7295 6.41688 21.3002 8.12009 21.3002 10.2137L21.3003 15.6251C21.3003 15.8885 21.198 16.136 21.0122 16.3221C20.8262 16.5081 20.5788 16.6106 20.3151 16.6106L20.3151 16.6106ZM17.7988 6.94042C16.5213 6.94042 15.5031 7.66201 15.0749 8.87064C15.0475 8.94738 15.019 9.02413 14.9857 9.09891C14.8891 9.31555 14.8891 9.31555 14.8619 9.3467L14.8583 9.34359C14.7235 9.59794 14.323 10.2915 13.1335 12.3509C13.0847 12.4353 13.0717 12.5334 13.0966 12.6272C13.1219 12.721 13.1824 12.8001 13.2662 12.8484C13.5263 12.9978 13.8825 12.9014 14.0308 12.6431L15.0244 10.9228C15.0838 10.8203 15.2038 10.77 15.3189 10.8011C15.4334 10.8318 15.5129 10.9356 15.5129 11.054V16.4621C15.5129 16.7173 15.7054 16.9376 15.9421 16.9531C16.0785 16.9603 16.2058 16.9146 16.3014 16.8191C16.3883 16.7322 16.4362 16.6165 16.4362 16.4926V12.9556C16.4362 12.811 16.5535 12.6938 16.6981 12.6938C16.8427 12.6938 16.96 12.8108 16.96 12.9556L16.9598 17.2966C16.9598 17.5511 17.167 17.7582 17.4215 17.7582C17.5451 17.7582 17.6612 17.7103 17.7483 17.6234C17.8352 17.5364 17.8831 17.4202 17.8831 17.2966V12.9556C17.8831 12.811 18.0002 12.6937 18.145 12.6937C18.2896 12.6937 18.4069 12.8108 18.4069 12.9556L18.4067 16.452V16.4926C18.4067 16.747 18.6139 16.9541 18.8685 16.9541C18.992 16.9541 19.1078 16.906 19.1954 16.8188C19.2823 16.732 19.3302 16.6163 19.3302 16.4925V12.9555C19.3302 12.8108 19.4473 12.6936 19.5921 12.6936C19.7367 12.6936 19.854 12.8107 19.854 12.9555L19.8536 15.6253C19.8536 15.88 20.0608 16.0871 20.3151 16.0871C20.4389 16.0871 20.5547 16.039 20.6416 15.9523C20.7289 15.865 20.7766 15.7489 20.7766 15.6253L20.7768 10.2138C20.7768 8.40906 19.4409 6.94048 17.7988 6.94048L17.7988 6.94042Z"/>
</mask>
<path d="M20.3151 16.6106C20.1475 16.6106 19.9919 16.5645 19.8537 16.4904V16.4923C19.8537 16.756 19.7512 17.0037 19.5652 17.1892C19.3792 17.3751 19.1318 17.4776 18.8684 17.4776C18.6983 17.4776 18.5407 17.4304 18.401 17.3543C18.3869 17.5955 18.2905 17.821 18.1184 17.9932C17.9325 18.1792 17.685 18.2817 17.4215 18.2817C16.8978 18.2817 16.4726 17.8701 16.4419 17.3541C16.2799 17.4417 16.0967 17.4876 15.9078 17.4755C15.3927 17.4417 14.9893 16.9966 14.9893 16.462V12.0304L14.4846 12.9046C14.2924 13.239 13.9327 13.4466 13.5453 13.4466C13.3565 13.4466 13.1701 13.3971 13.0049 13.3024C12.7993 13.1832 12.6522 12.9918 12.591 12.7629C12.5295 12.5338 12.5613 12.2942 12.6802 12.0889C12.6804 12.0889 14.3313 9.22997 14.432 9.05436C14.444 9.02796 14.4781 8.95137 14.5071 8.8861C14.5348 8.82379 14.5586 8.75983 14.5814 8.69554C15.0793 7.28998 16.312 6.41688 17.7988 6.41688C19.7295 6.41688 21.3002 8.12009 21.3002 10.2137L21.3003 15.6251C21.3003 15.8885 21.198 16.136 21.0122 16.3221C20.8262 16.5081 20.5788 16.6106 20.3151 16.6106L20.3151 16.6106ZM17.7988 6.94042C16.5213 6.94042 15.5031 7.66201 15.0749 8.87064C15.0475 8.94738 15.019 9.02413 14.9857 9.09891C14.8891 9.31555 14.8891 9.31555 14.8619 9.3467L14.8583 9.34359C14.7235 9.59794 14.323 10.2915 13.1335 12.3509C13.0847 12.4353 13.0717 12.5334 13.0966 12.6272C13.1219 12.721 13.1824 12.8001 13.2662 12.8484C13.5263 12.9978 13.8825 12.9014 14.0308 12.6431L15.0244 10.9228C15.0838 10.8203 15.2038 10.77 15.3189 10.8011C15.4334 10.8318 15.5129 10.9356 15.5129 11.054V16.4621C15.5129 16.7173 15.7054 16.9376 15.9421 16.9531C16.0785 16.9603 16.2058 16.9146 16.3014 16.8191C16.3883 16.7322 16.4362 16.6165 16.4362 16.4926V12.9556C16.4362 12.811 16.5535 12.6938 16.6981 12.6938C16.8427 12.6938 16.96 12.8108 16.96 12.9556L16.9598 17.2966C16.9598 17.5511 17.167 17.7582 17.4215 17.7582C17.5451 17.7582 17.6612 17.7103 17.7483 17.6234C17.8352 17.5364 17.8831 17.4202 17.8831 17.2966V12.9556C17.8831 12.811 18.0002 12.6937 18.145 12.6937C18.2896 12.6937 18.4069 12.8108 18.4069 12.9556L18.4067 16.452V16.4926C18.4067 16.747 18.6139 16.9541 18.8685 16.9541C18.992 16.9541 19.1078 16.906 19.1954 16.8188C19.2823 16.732 19.3302 16.6163 19.3302 16.4925V12.9555C19.3302 12.8108 19.4473 12.6936 19.5921 12.6936C19.7367 12.6936 19.854 12.8107 19.854 12.9555L19.8536 15.6253C19.8536 15.88 20.0608 16.0871 20.3151 16.0871C20.4389 16.0871 20.5547 16.039 20.6416 15.9523C20.7289 15.865 20.7766 15.7489 20.7766 15.6253L20.7768 10.2138C20.7768 8.40906 19.4409 6.94048 17.7988 6.94048L17.7988 6.94042Z" fill="#4CAF4F"/>
<path d="M20.3151 16.6106V15.6825H23.5941L20.8015 17.401L20.3151 16.6106ZM19.8537 16.4904H18.9256V14.9396L20.2922 15.6724L19.8537 16.4904ZM19.5652 17.1892L18.9089 16.5329L18.9098 16.532L19.5652 17.1892ZM18.401 17.3543L17.4745 17.3001L17.5599 15.8395L18.8449 16.5392L18.401 17.3543ZM18.1184 17.9932L18.775 18.6491L18.7747 18.6495L18.1184 17.9932ZM16.4419 17.3541L16.0006 16.5377L17.282 15.8451L17.3684 17.2991L16.4419 17.3541ZM15.9078 17.4755L15.8483 18.4017L15.8471 18.4016L15.9078 17.4755ZM14.9893 12.0304L14.1855 11.5664L15.9174 8.56599V12.0304H14.9893ZM14.4846 12.9046L13.68 12.4421L13.6808 12.4406L14.4846 12.9046ZM13.0049 13.3024L12.5435 14.1077L12.5395 14.1054L13.0049 13.3024ZM12.591 12.7629L13.4874 12.5223L13.4877 12.5233L12.591 12.7629ZM12.6802 12.0889L11.8771 11.6238L12.1452 11.1608H12.6802V12.0889ZM14.432 9.05436L15.2773 9.43762L15.2591 9.47781L15.2371 9.51609L14.432 9.05436ZM14.5071 8.8861L13.6591 8.50898L13.6591 8.50897L14.5071 8.8861ZM14.5814 8.69554L15.4562 9.00542L15.4562 9.00567L14.5814 8.69554ZM21.3002 10.2137L20.3721 10.2137V10.2137H21.3002ZM21.3003 15.6251L22.2284 15.6251V15.6251H21.3003ZM21.0122 16.3221L21.6691 16.9778L21.6685 16.9784L21.0122 16.3221ZM20.3151 16.6106V17.5387H17.0361L19.8287 15.8202L20.3151 16.6106ZM17.7988 6.94042V6.01233H19.0292L18.6912 7.19539L17.7988 6.94042ZM15.0749 8.87064L15.9497 9.18056L15.949 9.18255L15.0749 8.87064ZM14.9857 9.09891L15.8335 9.47637L15.8333 9.47686L14.9857 9.09891ZM14.8619 9.3467L15.5608 9.95736L14.9536 10.6522L14.2552 10.0491L14.8619 9.3467ZM14.8583 9.34359L14.0382 8.90898L14.5835 7.88002L15.4649 8.64118L14.8583 9.34359ZM13.1335 12.3509L13.9372 12.8151L13.9368 12.8157L13.1335 12.3509ZM13.0966 12.6272L12.2005 12.8685L12.1997 12.8656L13.0966 12.6272ZM13.2662 12.8484L12.804 13.6532L12.8022 13.6522L13.2662 12.8484ZM14.0308 12.6431L13.2258 12.1811L13.2271 12.1789L14.0308 12.6431ZM15.0244 10.9228L14.2207 10.4586L14.2213 10.4577L15.0244 10.9228ZM15.3189 10.8011L15.0787 11.6976L15.0764 11.697L15.3189 10.8011ZM15.9421 16.9531L15.8931 17.88L15.8812 17.8792L15.9421 16.9531ZM16.3014 16.8191L16.9577 17.4754L16.9571 17.476L16.3014 16.8191ZM16.96 12.9556H17.8881V12.9557L16.96 12.9556ZM16.9598 17.2966H16.0317V17.2966L16.9598 17.2966ZM17.7483 17.6234L18.4052 18.2791L18.4039 18.2803L17.7483 17.6234ZM18.4069 12.9556H19.335V12.9557L18.4069 12.9556ZM18.4067 16.452H17.4786V16.4519L18.4067 16.452ZM19.1954 16.8188L19.851 17.4757L19.8504 17.4763L19.1954 16.8188ZM19.854 12.9555H20.7821V12.9556L19.854 12.9555ZM19.8536 15.6253H18.9256V15.6252L19.8536 15.6253ZM20.6416 15.9523L21.2979 16.6085L21.2973 16.6092L20.6416 15.9523ZM20.7766 15.6253H19.8485V15.6252L20.7766 15.6253ZM20.7768 10.2138H21.7048V10.2138L20.7768 10.2138ZM17.7988 6.94048V7.86857H16.5684L16.9064 6.68551L17.7988 6.94048ZM20.3151 17.5387C19.9734 17.5387 19.6683 17.4441 19.4151 17.3083L20.2922 15.6724C20.3042 15.6789 20.3118 15.6813 20.3149 15.6821C20.3175 15.6828 20.3171 15.6825 20.3151 15.6825V17.5387ZM20.7818 16.4904V16.4923H18.9256V16.4904H20.7818ZM20.7818 16.4923C20.7818 17.0014 20.582 17.4858 20.2206 17.8463L18.9098 16.532C18.9164 16.5254 18.9197 16.5197 18.9216 16.5151C18.9236 16.5105 18.9256 16.5033 18.9256 16.4923H20.7818ZM20.2215 17.8454C19.8613 18.2056 19.3777 18.4057 18.8684 18.4057V16.5495C18.879 16.5495 18.886 16.5476 18.8908 16.5456C18.8955 16.5437 18.9017 16.5401 18.9089 16.5329L20.2215 17.8454ZM18.8684 18.4057C18.5222 18.4057 18.2133 18.3088 17.9571 18.1694L18.8449 16.5392C18.8569 16.5458 18.8646 16.5483 18.8677 16.5491C18.8702 16.5498 18.87 16.5495 18.8684 16.5495V18.4057ZM19.3275 17.4085C19.3008 17.8653 19.1155 18.3083 18.775 18.6491L17.4618 17.3373C17.4653 17.3339 17.4673 17.3308 17.469 17.327C17.4708 17.3228 17.4737 17.3143 17.4745 17.3001L19.3275 17.4085ZM18.7747 18.6495C18.4145 19.0097 17.9309 19.2098 17.4215 19.2098V17.3536C17.4323 17.3536 17.4393 17.3516 17.4441 17.3497C17.4488 17.3477 17.4549 17.3442 17.4622 17.337L18.7747 18.6495ZM17.4215 19.2098C16.3968 19.2098 15.5747 18.4056 15.5155 17.4092L17.3684 17.2991C17.3693 17.3149 17.3758 17.3287 17.3872 17.3396C17.3928 17.3449 17.3984 17.3484 17.4033 17.3504C17.4077 17.3521 17.4132 17.3536 17.4215 17.3536V19.2098ZM16.8832 18.1706C16.5834 18.3326 16.228 18.4261 15.8483 18.4017L15.9673 16.5493C15.9673 16.5493 15.9693 16.5495 15.9742 16.5484C15.9794 16.5471 15.9885 16.5442 16.0006 16.5377L16.8832 18.1706ZM15.8471 18.4016C14.8166 18.334 14.0612 17.4577 14.0612 16.462H15.9174C15.9174 16.4934 15.9287 16.5175 15.943 16.5333C15.9569 16.5487 15.9664 16.5492 15.9685 16.5494L15.8471 18.4016ZM14.0612 16.462V12.0304H15.9174V16.462H14.0612ZM15.7931 12.4943L15.2884 13.3686L13.6808 12.4406L14.1855 11.5664L15.7931 12.4943ZM15.2893 13.3671C14.9307 13.991 14.2631 14.3747 13.5453 14.3747V12.5185C13.6022 12.5185 13.6542 12.4869 13.68 12.4421L15.2893 13.3671ZM13.5453 14.3747C13.1943 14.3747 12.8488 14.2827 12.5435 14.1077L13.4664 12.4972C13.4913 12.5115 13.5187 12.5185 13.5453 12.5185V14.3747ZM12.5395 14.1054C12.1228 13.8638 11.8195 13.4707 11.6944 13.0025L13.4877 12.5233C13.4868 12.5202 13.4845 12.5146 13.48 12.5087C13.4756 12.5029 13.4715 12.5001 13.4704 12.4995L12.5395 14.1054ZM11.6947 13.0035C11.5691 12.5356 11.6348 12.0422 11.8771 11.6238L13.4834 12.5539C13.4847 12.5516 13.487 12.5463 13.488 12.5388C13.489 12.5313 13.4882 12.5253 13.4874 12.5223L11.6947 13.0035ZM12.6802 11.1608C12.225 11.2801 11.8842 11.6117 11.8817 11.616C11.8808 11.6174 11.8795 11.6195 11.8791 11.6202C11.8789 11.6206 11.8785 11.6213 11.8784 11.6215C11.8783 11.6217 11.8781 11.622 11.8781 11.622C11.878 11.6223 11.878 11.6222 11.8783 11.6216C11.879 11.6205 11.88 11.6187 11.8816 11.616C11.8846 11.6107 11.8892 11.6028 11.8953 11.5923C11.9073 11.5714 11.9251 11.5407 11.9478 11.5015C11.9931 11.423 12.058 11.3106 12.1362 11.1753C12.2925 10.9045 12.502 10.5417 12.7147 10.1734C13.1407 9.43554 13.5775 8.67889 13.6269 8.59263L15.2371 9.51609C15.1859 9.60544 14.7468 10.366 14.3222 11.1015C14.1095 11.4699 13.8999 11.8328 13.7435 12.1036C13.6654 12.239 13.6004 12.3513 13.5551 12.4299C13.5324 12.4692 13.5146 12.5 13.5024 12.5211C13.4963 12.5316 13.4916 12.5397 13.4884 12.5453C13.4868 12.5481 13.4855 12.5503 13.4845 12.552C13.4841 12.5528 13.4835 12.5537 13.483 12.5546C13.4828 12.555 13.4822 12.556 13.4815 12.5572C13.481 12.558 13.4797 12.5602 13.4788 12.5617C13.4763 12.566 13.1355 12.8976 12.6802 13.017V11.1608ZM13.5868 8.6711C13.597 8.64857 13.6293 8.57592 13.6591 8.50898L15.3551 9.26323C15.3269 9.32682 15.291 9.40734 15.2773 9.43762L13.5868 8.6711ZM13.6591 8.50897C13.672 8.47996 13.6863 8.4429 13.7067 8.38542L15.4562 9.00567C15.431 9.07676 15.3977 9.16761 15.3551 9.26324L13.6591 8.50897ZM13.7066 8.38567C14.3352 6.61105 15.9173 5.48879 17.7988 5.48879V7.34497C16.7067 7.34497 15.8234 7.96891 15.4562 9.00542L13.7066 8.38567ZM17.7988 5.48879C20.3114 5.48879 22.2283 7.67973 22.2283 10.2137H20.3721C20.3721 8.56046 19.1476 7.34497 17.7988 7.34497V5.48879ZM22.2283 10.2136L22.2284 15.6251L20.3723 15.6252L20.3721 10.2137L22.2283 10.2136ZM22.2284 15.6251C22.2284 16.1341 22.0288 16.6174 21.6691 16.9778L20.3553 15.6665C20.3627 15.6591 20.3663 15.6529 20.3683 15.648C20.3703 15.6431 20.3723 15.636 20.3723 15.6251H22.2284ZM21.6685 16.9784C21.3082 17.3387 20.8246 17.5387 20.3151 17.5387V15.6825C20.326 15.6825 20.3331 15.6805 20.3379 15.6786C20.3426 15.6766 20.3487 15.6731 20.356 15.6659L21.6685 16.9784ZM19.8287 15.8202L19.8287 15.8202L20.8015 17.401L20.8015 17.401L19.8287 15.8202ZM17.7988 7.86852C16.9164 7.86852 16.2473 8.34056 15.9497 9.18055L14.2001 8.56072C14.7588 6.98347 16.1262 6.01233 17.7988 6.01233V7.86852ZM15.949 9.18255C15.9197 9.26465 15.8816 9.36834 15.8335 9.47637L14.1378 8.72146C14.1563 8.67992 14.1753 8.63011 14.2008 8.55872L15.949 9.18255ZM15.8333 9.47686C15.7908 9.57218 15.7552 9.65268 15.728 9.70721C15.7111 9.74105 15.6837 9.7932 15.644 9.85098C15.6038 9.90951 15.564 9.95365 15.5608 9.95736L14.163 8.73605C14.1651 8.73356 14.1644 8.73437 14.1633 8.73564C14.1619 8.73729 14.1583 8.74149 14.1536 8.74726C14.1487 8.75324 14.1425 8.76096 14.1355 8.77014C14.1285 8.7794 14.1214 8.78925 14.1142 8.79964C14.0997 8.8208 14.0885 8.83933 14.0805 8.85334C14.0731 8.86642 14.0686 8.87548 14.0675 8.87752C14.0665 8.87963 14.0671 8.87839 14.0703 8.87164C14.0734 8.86509 14.0777 8.85567 14.0839 8.84195C14.09 8.82836 14.0974 8.81194 14.1065 8.79165C14.1155 8.77139 14.1259 8.74818 14.138 8.72097L15.8333 9.47686ZM14.2552 10.0491L14.2516 10.046L15.4649 8.64118L15.4685 8.6443L14.2552 10.0491ZM15.6783 9.77819C15.533 10.0523 15.1184 10.77 13.9372 12.8151L12.3299 11.8867C13.5276 9.81292 13.9139 9.14361 14.0382 8.90898L15.6783 9.77819ZM13.9368 12.8157C14.0111 12.6874 14.0318 12.5326 13.9936 12.3888L12.1997 12.8656C12.1116 12.5343 12.1582 12.1833 12.3303 11.8861L13.9368 12.8157ZM13.9928 12.3859C13.9546 12.2441 13.8608 12.12 13.7302 12.0447L12.8022 13.6522C12.5041 13.4801 12.2892 13.198 12.2005 12.8685L13.9928 12.3859ZM13.7285 12.0437C13.6228 11.983 13.5201 11.9834 13.4491 12.0025C13.3785 12.0215 13.2878 12.0731 13.2258 12.1811L14.8357 13.1051C14.4312 13.8099 13.5068 14.0569 12.804 13.6532L13.7285 12.0437ZM13.2271 12.1789L14.2207 10.4586L15.8281 11.387L14.8344 13.1073L13.2271 12.1789ZM14.2213 10.4577C14.4894 9.99484 15.0365 9.76322 15.5614 9.90528L15.0764 11.697C15.3711 11.7767 15.6782 11.6458 15.8275 11.388L14.2213 10.4577ZM15.5591 9.90466C16.0798 10.0442 16.441 10.516 16.441 11.054H14.5848C14.5848 11.3552 14.787 11.6195 15.0787 11.6976L15.5591 9.90466ZM16.441 11.054V16.4621H14.5848V11.054H16.441ZM16.441 16.4621C16.441 16.3564 16.4018 16.2602 16.3375 16.1867C16.2733 16.1132 16.16 16.0374 16.0031 16.027L15.8812 17.8792C15.0999 17.8278 14.5848 17.1472 14.5848 16.4621H16.441ZM15.9911 16.0263C15.8815 16.0205 15.7475 16.0607 15.6457 16.1623L16.9571 17.476C16.6641 17.7685 16.2756 17.9002 15.8931 17.8799L15.9911 16.0263ZM15.6451 16.1629C15.5571 16.251 15.5081 16.3716 15.5081 16.4926H17.3643C17.3643 16.8613 17.2196 17.2135 16.9577 17.4754L15.6451 16.1629ZM15.5081 16.4926V12.9556H17.3643V16.4926H15.5081ZM15.5081 12.9556C15.5081 12.2984 16.0409 11.7657 16.6981 11.7657V13.6218C17.066 13.6218 17.3643 13.3236 17.3643 12.9556H15.5081ZM16.6981 11.7657C17.3549 11.7657 17.8881 12.2979 17.8881 12.9556H16.0319C16.0319 13.3238 16.3305 13.6218 16.6981 13.6218V11.7657ZM17.8881 12.9557L17.8879 17.2966L16.0317 17.2966L16.0319 12.9556L17.8881 12.9557ZM17.8879 17.2966C17.8879 17.0385 17.6795 16.8301 17.4215 16.8301V18.6863C16.6544 18.6863 16.0317 18.0637 16.0317 17.2966H17.8879ZM17.4215 16.8301C17.3007 16.8301 17.1806 16.8788 17.0927 16.9665L18.4039 18.2803C18.1419 18.5419 17.7896 18.6863 17.4215 18.6863V16.8301ZM17.0914 16.9678C17.0037 17.0557 16.955 17.1758 16.955 17.2966H18.8112C18.8112 17.6647 18.6668 18.017 18.4052 18.2791L17.0914 16.9678ZM16.955 17.2966V12.9556H18.8112V17.2966H16.955ZM16.955 12.9556C16.955 12.2988 17.4872 11.7657 18.145 11.7657V13.6218C18.5132 13.6218 18.8112 13.3232 18.8112 12.9556H16.955ZM18.145 11.7657C18.8018 11.7657 19.335 12.2979 19.335 12.9556H17.4788C17.4788 13.3238 17.7775 13.6218 18.145 13.6218V11.7657ZM19.335 12.9557L19.3348 16.452L17.4786 16.4519L17.4788 12.9556L19.335 12.9557ZM19.3348 16.452V16.4926H17.4786V16.452H19.3348ZM19.3348 16.4926C19.3348 16.234 19.126 16.026 18.8685 16.026V17.8822C18.1017 17.8822 17.4786 17.26 17.4786 16.4926H19.3348ZM18.8685 16.026C18.7452 16.026 18.6258 16.0762 18.5404 16.1613L19.8504 17.4763C19.5898 17.7359 19.2388 17.8822 18.8685 17.8822V16.026ZM18.5397 16.1619C18.451 16.2505 18.4021 16.3716 18.4021 16.4925H20.2583C20.2583 16.8609 20.1136 17.2136 19.851 17.4757L18.5397 16.1619ZM18.4021 16.4925V12.9555H20.2583V16.4925H18.4021ZM18.4021 12.9555C18.4021 12.2986 18.9343 11.7655 19.5921 11.7655V13.6217C19.9602 13.6217 20.2583 13.323 20.2583 12.9555H18.4021ZM19.5921 11.7655C20.2489 11.7655 20.7821 12.2977 20.7821 12.9555H18.9259C18.9259 13.3236 19.2245 13.6217 19.5921 13.6217V11.7655ZM20.7821 12.9556L20.7817 15.6254L18.9256 15.6252L18.9259 12.9553L20.7821 12.9556ZM20.7817 15.6253C20.7817 15.3678 20.5738 15.159 20.3151 15.159V17.0152C19.5478 17.0152 18.9256 16.3921 18.9256 15.6253H20.7817ZM20.3151 15.159C20.1934 15.159 20.0733 15.2083 19.986 15.2954L21.2973 16.6092C21.0361 16.8698 20.6845 17.0152 20.3151 17.0152V15.159ZM19.9854 15.296C19.897 15.3844 19.8485 15.505 19.8485 15.6253H21.7047C21.7047 15.9928 21.5607 16.3457 21.2979 16.6085L19.9854 15.296ZM19.8485 15.6252L19.8487 10.2138L21.7048 10.2138L21.7047 15.6253L19.8485 15.6252ZM19.8487 10.2138C19.8487 8.83704 18.8476 7.86857 17.7988 7.86857V6.01239C20.0341 6.01239 21.7048 7.98107 21.7048 10.2138H19.8487ZM16.9064 6.68551L16.9064 6.68546L18.6912 7.19539L18.6912 7.19545L16.9064 6.68551Z" fill="#4CAF4F" mask="url(#path-1-inside-1_211_2338)"/>
<path d="M11.8325 21.5855C11.7082 21.6603 11.5475 21.6199 11.4732 21.4958C11.3988 21.3718 11.4391 21.2109 11.5629 21.1365M11.8325 21.5855L14.0951 18.541C14.3138 18.4096 14.602 18.4614 14.7368 18.6564M11.8325 21.5855L14.8654 19.766H14.8656L14.8659 19.7658M11.8325 21.5855L16.0299 20.1441C16.1359 20.0805 16.2106 19.9798 16.2405 19.8603M11.5629 21.1365L14.596 19.317C14.7019 19.2533 14.7769 19.1525 14.8067 19.0333M11.5629 21.1365L11.5936 21.1877L11.6976 21.361L11.6979 21.3614L11.7447 21.4395L11.8017 21.5344L11.8018 21.5343L11.8018 21.5343L11.8021 21.5342M11.5629 21.1365L11.5937 21.1876M14.8067 19.0333C14.8395 18.9024 14.8146 18.7686 14.7368 18.6564M14.8067 19.0333L14.8816 19.052L14.8744 18.8981C14.8695 18.7922 14.8385 18.6982 14.7861 18.6227L14.7859 18.6225L14.7368 18.6564M14.8067 19.0333L14.8816 19.052L14.8889 19.2108L14.7371 19.3019H14.7369L14.6267 19.3681L14.6267 19.3681L14.6266 19.3681L11.5938 21.1876M14.7368 18.6564L14.7859 18.6224L12.5466 22.7749C12.6418 22.7176 12.6733 22.5938 12.6156 22.4976C12.5583 22.4023 12.4341 22.3709 12.3383 22.4283L15.3712 20.6089C15.4409 20.567 15.5139 20.5355 15.5885 20.5137L16.0589 20.1925L16.059 20.1925L16.0848 20.1748C16.1952 20.0995 16.2682 19.995 16.2982 19.8748L16.2983 19.8747L16.2405 19.8603M11.5938 21.1876C11.6893 21.1305 11.8135 21.1614 11.8711 21.2569C11.8712 21.2571 11.8713 21.2573 11.8714 21.2575C11.9287 21.3536 11.8971 21.477 11.8021 21.5342M11.5938 21.1876C11.5938 21.1876 11.5937 21.1876 11.5937 21.1876M11.5938 21.1876L11.5937 21.1876M11.8021 21.5342L14.8347 19.7149L14.8348 19.7149L14.8349 19.7148C14.835 19.7147 14.8351 19.7147 14.8352 19.7146L14.8654 19.765L14.8656 19.7653L14.8659 19.7658M11.8021 21.5342L11.6981 21.3612L11.6979 21.3609L11.6627 21.3024L11.5937 21.1876M14.8659 19.7658V19.6953C14.9244 19.657 14.978 19.6126 15.0258 19.563L15.525 19.3024L15.525 19.3024L15.5527 19.288C15.6329 19.2461 15.7139 19.2265 15.7907 19.2265C15.8323 19.2265 15.8752 19.2317 15.9189 19.2425C15.9189 19.2425 15.9189 19.2425 15.9189 19.2425C15.9191 19.2425 15.9192 19.2426 15.9194 19.2426L16.0171 18.8502M14.8659 19.7658L15.555 19.3524C15.6606 19.2891 15.7843 19.2706 15.9045 19.3004C16.024 19.3303 16.1249 19.405 16.1883 19.5108C16.2518 19.6167 16.2703 19.7409 16.2405 19.8603M16.0171 18.8502C16.017 18.8502 16.017 18.8502 16.017 18.8502M16.0171 18.8502C16.2562 18.91 16.4595 19.0609 16.5862 19.2719L16.6373 19.2413M16.0171 18.8502L16.0315 18.7923M16.017 18.8502L15.919 19.2425C16.0548 19.2764 16.1673 19.3598 16.2393 19.48C16.2393 19.48 16.2394 19.4801 16.2394 19.4802C16.2394 19.4802 16.2394 19.4802 16.2394 19.4802C16.3117 19.6009 16.3321 19.7394 16.2983 19.8746L16.2983 19.8747L16.2405 19.8603M16.017 18.8502C16.017 18.8502 16.0169 18.8502 16.0169 18.8502L16.0163 18.85C15.9446 18.8322 15.8719 18.8231 15.7997 18.8225M16.017 18.8502L16.0315 18.7923M15.5794 20.9555L15.841 20.7986L16.1108 20.9577C16.1915 21.0054 16.2526 21.0651 16.2939 21.1341L16.294 21.1343C16.2941 21.1344 16.2941 21.1344 16.2942 21.1345L16.2433 21.1651M15.5794 20.9555L16.3532 21.5292C16.3869 21.3935 16.3664 21.2551 16.2942 21.1346L16.2433 21.1651M15.5794 20.9555L15.6101 21.0067M15.5794 20.9555L15.5794 20.9556L15.6101 21.0067M16.2433 21.1651C16.1122 20.9469 15.828 20.8759 15.6101 21.0067M16.2433 21.1651C16.3069 21.2709 16.3254 21.3952 16.2956 21.5148L15.6101 21.0067M16.6855 20.8848C16.6877 20.8884 16.6899 20.8921 16.6921 20.8957L16.6855 20.8848ZM16.6855 20.8848C16.6698 20.8971 16.6539 20.909 16.6377 20.9206C16.6388 20.9224 16.6398 20.9242 16.6409 20.9259L16.6855 20.8848ZM16.6132 20.1771C16.6467 20.113 16.6728 20.0445 16.6907 19.9728L16.6132 20.1771ZM16.6132 20.1771C16.6299 20.1874 16.6464 20.1981 16.6628 20.2092C16.7 20.1399 16.7289 20.0656 16.7485 19.9872C16.8123 19.7321 16.7727 19.4673 16.6373 19.2413M16.6132 20.1771L16.6907 19.9727C16.7505 19.7336 16.7128 19.4833 16.5864 19.2723L16.5863 19.2721C16.5862 19.272 16.5862 19.272 16.5862 19.272L16.6373 19.2413M16.6373 19.2413C16.502 19.0157 16.2868 18.8561 16.0315 18.7923M16.0315 18.7923L15.7944 18.7625M15.7944 18.7625C15.7966 18.7825 15.7983 18.8025 15.7997 18.8225M15.7944 18.7625C15.7932 18.7625 15.792 18.7625 15.7907 18.7625C15.6338 18.7625 15.4797 18.8027 15.338 18.8766M15.7944 18.7625L15.338 18.8766M15.7997 18.8225C15.8004 18.8334 15.801 18.8442 15.8015 18.8551L15.7907 18.8556L15.5026 18.869M15.7997 18.8225C15.7967 18.8225 15.7937 18.8224 15.7907 18.8224C15.6928 18.8225 15.5957 18.8382 15.5026 18.869M15.5026 18.869L15.338 18.8766M15.5026 18.869C15.4554 18.8846 15.4092 18.9041 15.3645 18.9274C15.3483 18.9359 15.3322 18.9449 15.3164 18.9544L15.3163 18.9545L15.2833 18.9743M15.338 18.8766L15.0735 19.1001L15.0736 19.1001L15.2569 19.146C15.2569 19.146 15.2568 19.146 15.2568 19.1461C15.2711 19.089 15.2799 19.0315 15.2833 18.9743M15.338 18.8766L15.2671 18.7409M15.338 18.8766C15.3306 18.7185 15.2889 18.5628 15.2089 18.4238C15.1908 18.4319 15.1727 18.4404 15.1549 18.4492M15.2833 18.9743C15.2851 18.9424 15.2854 18.9107 15.2839 18.8791C15.2818 18.8326 15.2762 18.7864 15.2671 18.7409M15.2833 18.9743L15.2671 18.7409M15.2671 18.7409L15.1232 18.4652C15.1337 18.4598 15.1443 18.4544 15.1549 18.4492M15.2671 18.7409L15.1184 18.3922C15.1313 18.4109 15.1434 18.4299 15.1549 18.4492M15.2671 18.7409C15.2467 18.6389 15.209 18.5404 15.1549 18.4492M16.3465 20.558L16.4258 20.4236C16.3915 20.4557 16.3545 20.4854 16.3152 20.5122C16.3001 20.5225 16.2847 20.5325 16.2689 20.542L16.2686 20.5421L16.2351 20.5622L16.3465 20.558ZM8.93572 18.3984L8.88296 18.3706C8.87326 18.3881 8.84911 18.4316 8.81345 18.4959C8.80462 18.5118 8.79508 18.529 8.78488 18.5473C8.80306 18.5564 8.8214 18.5644 8.83977 18.5713C8.87115 18.5148 8.90312 18.4572 8.93572 18.3984ZM13.0827 23.6691C13.0826 23.6691 13.0826 23.6691 13.0825 23.6691L13.0827 23.6691Z" fill="#4CAF4F" stroke="#4CAF4F" stroke-width="0.928093"/>
<path d="M24.7845 19.2345L24.7844 19.2345L24.7845 19.2345ZM24.7845 19.2345C24.6873 19.0603 24.6912 18.8458 24.7942 18.6741L24.7845 19.2345ZM19.0429 18.8222C18.9704 18.8228 18.8975 18.832 18.8256 18.85L19.0429 18.8222ZM19.0429 18.8222C19.0443 18.8023 19.046 18.7823 19.0482 18.7623L19.0429 18.8222ZM24.3669 19.5599L24.3274 19.489L24.3669 19.5599ZM23.2487 21.1874C23.2486 21.1874 23.2485 21.1873 23.2484 21.1873L23.2486 21.1874L23.2487 21.1874ZM21.7598 23.6694C21.7597 23.6693 21.7596 23.6693 21.7595 23.6692L21.7598 23.6694ZM21.7594 23.6691L21.7595 23.6692L21.7594 23.6691Z" fill="#4CAF4F" stroke="#4CAF4F" stroke-width="0.928093"/>
</svg>
