<svg width="35" height="34" viewBox="0 0 35 34" fill="none" xmlns="http://www.w3.org/2000/svg">
<path d="M4.43665 11.4801V11.8282H4.78468H29.8432H30.1912V11.4801V9.91398C30.1912 9.1294 29.8795 8.37694 29.3248 7.82215C28.77 7.26737 28.0175 6.95569 27.2329 6.95569H7.39494C6.61035 6.95569 5.8579 7.26737 5.30311 7.82215C4.74832 8.37694 4.43665 9.1294 4.43665 9.91398V11.4801ZM30.1912 13.5683V13.2203H29.8432H4.78468H4.43665V13.5683V23.4873C4.43665 24.2719 4.74832 25.0244 5.30311 25.5792C5.8579 26.134 6.61035 26.4456 7.39494 26.4456H27.2329C28.0175 26.4456 28.77 26.134 29.3248 25.5792C29.8795 25.0244 30.1912 24.2719 30.1912 23.4873V13.5683ZM3.04451 9.91398C3.04451 8.76018 3.50285 7.65363 4.31872 6.83776C5.13458 6.0219 6.24113 5.56355 7.39494 5.56355H27.2329C28.3867 5.56355 29.4933 6.0219 30.3091 6.83776C31.125 7.65363 31.5834 8.76018 31.5834 9.91398V23.4873C31.5834 24.6411 31.125 25.7477 30.3091 26.5636C29.4933 27.3794 28.3867 27.8378 27.2329 27.8378H7.39494C6.24113 27.8378 5.13458 27.3794 4.31872 26.5636C3.50285 25.7477 3.04451 24.6411 3.04451 23.4873V9.91398ZM22.5345 20.181H25.6668C25.8514 20.181 26.0284 20.2543 26.159 20.3849C26.2895 20.5154 26.3628 20.6925 26.3628 20.8771C26.3628 21.0617 26.2895 21.2387 26.159 21.3693C26.0284 21.4998 25.8514 21.5731 25.6668 21.5731H22.5345C22.3498 21.5731 22.1728 21.4998 22.0423 21.3693C21.9117 21.2387 21.8384 21.0617 21.8384 20.8771C21.8384 20.6925 21.9117 20.5154 22.0423 20.3849C22.1728 20.2543 22.3498 20.181 22.5345 20.181Z" fill="#4CAF4F" stroke="#4CAF4F" stroke-width="0.696069"/>
</svg>
